<svg width="112" height="32" viewBox="0 0 112 32" fill="none" xmlns="http://www.w3.org/2000/svg">
<path d="M16 0C12.8355 -3.77363e-08 9.74206 0.938383 7.11088 2.69649C4.47969 4.45459 2.42893 6.95345 1.21793 9.87706C0.00692588 12.8007 -0.309928 16.0177 0.307435 19.1214C0.924798 22.2251 2.44865 25.0761 4.68629 27.3137C6.92393 29.5513 9.77485 31.0752 12.8786 31.6926C15.9822 32.3099 19.1993 31.9931 22.1229 30.7821C25.0465 29.5711 27.5454 27.5203 29.3035 24.8891C31.0616 22.2579 32 19.1645 32 16L24 16C24 17.5823 23.5308 19.129 22.6518 20.4446C21.7727 21.7602 20.5233 22.7855 19.0615 23.391C17.5997 23.9965 15.9911 24.155 14.4393 23.8463C12.8874 23.5376 11.462 22.7757 10.3431 21.6569C9.22432 20.538 8.4624 19.1126 8.15372 17.5607C7.84504 16.0089 8.00346 14.4003 8.60896 12.9385C9.21447 11.4767 10.2398 10.2273 11.5554 9.34824C12.871 8.46919 14.4177 8 16 8L16 0Z" fill="white"/>
<path d="M16 0C13.8989 -2.5056e-08 11.8183 0.413852 9.87706 1.21793C7.93586 2.022 6.17203 3.20055 4.68629 4.68629C3.20055 6.17203 2.022 7.93586 1.21793 9.87707C0.413852 11.8183 -3.17265e-07 13.8989 0 16L8 16C8 14.9494 8.20693 13.9091 8.60896 12.9385C9.011 11.9679 9.60028 11.086 10.3431 10.3431C11.086 9.60028 11.9679 9.011 12.9385 8.60896C13.9091 8.20693 14.9494 8 16 8L16 0Z" fill="#5CE1E6"/>
<circle cx="16" cy="16" r="5" fill="#5CE1E6"/>
<path d="M21 16C21 15.3434 20.8707 14.6932 20.6194 14.0866C20.3681 13.48 19.9998 12.9288 19.5355 12.4645C19.0712 12.0002 18.52 11.6319 17.9134 11.3806C17.3068 11.1293 16.6566 11 16 11C15.3434 11 14.6932 11.1293 14.0866 11.3806C13.48 11.6319 12.9288 12.0002 12.4645 12.4645C12.0002 12.9288 11.6319 13.48 11.3806 14.0866C11.1293 14.6932 11 15.3434 11 16L16 16H21Z" fill="white"/>
<path d="M46.404 14.324C46.404 14.996 46.242 15.626 45.918 16.214C45.606 16.802 45.108 17.276 44.424 17.636C43.752 17.996 42.9 18.176 41.868 18.176H39.762V23H37.242V10.436H41.868C42.84 10.436 43.668 10.604 44.352 10.94C45.036 11.276 45.546 11.738 45.882 12.326C46.23 12.914 46.404 13.58 46.404 14.324ZM41.76 16.142C42.456 16.142 42.972 15.986 43.308 15.674C43.644 15.35 43.812 14.9 43.812 14.324C43.812 13.1 43.128 12.488 41.76 12.488H39.762V16.142H41.76ZM52.6212 23.162C51.6612 23.162 50.7972 22.952 50.0292 22.532C49.2612 22.1 48.6552 21.494 48.2112 20.714C47.7792 19.934 47.5632 19.034 47.5632 18.014C47.5632 16.994 47.7852 16.094 48.2292 15.314C48.6852 14.534 49.3032 13.934 50.0832 13.514C50.8632 13.082 51.7332 12.866 52.6932 12.866C53.6532 12.866 54.5232 13.082 55.3032 13.514C56.0832 13.934 56.6952 14.534 57.1392 15.314C57.5952 16.094 57.8232 16.994 57.8232 18.014C57.8232 19.034 57.5892 19.934 57.1212 20.714C56.6652 21.494 56.0412 22.1 55.2492 22.532C54.4692 22.952 53.5932 23.162 52.6212 23.162ZM52.6212 20.966C53.0772 20.966 53.5032 20.858 53.8992 20.642C54.3072 20.414 54.6312 20.078 54.8712 19.634C55.1112 19.19 55.2312 18.65 55.2312 18.014C55.2312 17.066 54.9792 16.34 54.4752 15.836C53.9832 15.32 53.3772 15.062 52.6572 15.062C51.9372 15.062 51.3312 15.32 50.8392 15.836C50.3592 16.34 50.1192 17.066 50.1192 18.014C50.1192 18.962 50.3532 19.694 50.8212 20.21C51.3012 20.714 51.9012 20.966 52.6212 20.966ZM62.1917 14.576C62.5157 14.048 62.9357 13.634 63.4517 13.334C63.9797 13.034 64.5797 12.884 65.2517 12.884V15.53H64.5857C63.7937 15.53 63.1937 15.716 62.7857 16.088C62.3897 16.46 62.1917 17.108 62.1917 18.032V23H59.6717V13.028H62.1917V14.576ZM69.883 15.098V19.922C69.883 20.258 69.961 20.504 70.117 20.66C70.285 20.804 70.561 20.876 70.945 20.876H72.115V23H70.531C68.407 23 67.345 21.968 67.345 19.904V15.098H66.157V13.028H67.345V10.562H69.883V13.028H72.115V15.098H69.883ZM78.4995 15.098H76.7535V23H74.1975V15.098H73.0635V13.028H74.1975V12.524C74.1975 11.3 74.5455 10.4 75.2415 9.824C75.9375 9.248 76.9875 8.978 78.3915 9.014V11.138C77.7795 11.126 77.3535 11.228 77.1135 11.444C76.8735 11.66 76.7535 12.05 76.7535 12.614V13.028H78.4995V15.098ZM84.5606 23.162C83.6006 23.162 82.7366 22.952 81.9686 22.532C81.2006 22.1 80.5946 21.494 80.1506 20.714C79.7186 19.934 79.5026 19.034 79.5026 18.014C79.5026 16.994 79.7246 16.094 80.1686 15.314C80.6246 14.534 81.2426 13.934 82.0226 13.514C82.8026 13.082 83.6726 12.866 84.6326 12.866C85.5926 12.866 86.4626 13.082 87.2426 13.514C88.0226 13.934 88.6346 14.534 89.0786 15.314C89.5346 16.094 89.7626 16.994 89.7626 18.014C89.7626 19.034 89.5286 19.934 89.0606 20.714C88.6046 21.494 87.9806 22.1 87.1886 22.532C86.4086 22.952 85.5326 23.162 84.5606 23.162ZM84.5606 20.966C85.0166 20.966 85.4426 20.858 85.8386 20.642C86.2466 20.414 86.5706 20.078 86.8106 19.634C87.0506 19.19 87.1706 18.65 87.1706 18.014C87.1706 17.066 86.9186 16.34 86.4146 15.836C85.9226 15.32 85.3166 15.062 84.5966 15.062C83.8766 15.062 83.2706 15.32 82.7786 15.836C82.2986 16.34 82.0586 17.066 82.0586 18.014C82.0586 18.962 82.2926 19.694 82.7606 20.21C83.2406 20.714 83.8406 20.966 84.5606 20.966ZM94.1311 9.68V23H91.6111V9.68H94.1311ZM97.8989 11.84C97.4549 11.84 97.0829 11.702 96.7829 11.426C96.4949 11.138 96.3509 10.784 96.3509 10.364C96.3509 9.944 96.4949 9.596 96.7829 9.32C97.0829 9.032 97.4549 8.888 97.8989 8.888C98.3429 8.888 98.7089 9.032 98.9969 9.32C99.2969 9.596 99.4469 9.944 99.4469 10.364C99.4469 10.784 99.2969 11.138 98.9969 11.426C98.7089 11.702 98.3429 11.84 97.8989 11.84ZM99.1409 13.028V23H96.6209V13.028H99.1409ZM106.059 23.162C105.099 23.162 104.235 22.952 103.467 22.532C102.699 22.1 102.093 21.494 101.649 20.714C101.217 19.934 101.001 19.034 101.001 18.014C101.001 16.994 101.223 16.094 101.667 15.314C102.123 14.534 102.741 13.934 103.521 13.514C104.301 13.082 105.171 12.866 106.131 12.866C107.091 12.866 107.961 13.082 108.741 13.514C109.521 13.934 110.133 14.534 110.577 15.314C111.033 16.094 111.261 16.994 111.261 18.014C111.261 19.034 111.027 19.934 110.559 20.714C110.103 21.494 109.479 22.1 108.687 22.532C107.907 22.952 107.031 23.162 106.059 23.162ZM106.059 20.966C106.515 20.966 106.941 20.858 107.337 20.642C107.745 20.414 108.069 20.078 108.309 19.634C108.549 19.19 108.669 18.65 108.669 18.014C108.669 17.066 108.417 16.34 107.913 15.836C107.421 15.32 106.815 15.062 106.095 15.062C105.375 15.062 104.769 15.32 104.277 15.836C103.797 16.34 103.557 17.066 103.557 18.014C103.557 18.962 103.791 19.694 104.259 20.21C104.739 20.714 105.339 20.966 106.059 20.966Z" fill="#5CE1E6"/>
</svg>
